<svg width="94" height="110" viewBox="0 0 94 110" fill="none" xmlns="http://www.w3.org/2000/svg">
<path d="M6.35608 53.6683V74.6463L83.5732 9.03412L65.7195 4.57071L6.35608 53.6683Z" fill="#4D4D4D"/>
<path d="M56.3463 46.9732L6.35608 92.5V108.568H92.5L56.3463 46.9732Z" fill="#4D4D4D"/>
<path d="M6.35608 53.6683V74.6463L83.5732 9.03412L65.7195 4.57071L6.35608 53.6683Z" stroke="#4C4C4C"/>
<path d="M56.3463 46.9732L6.35608 92.5V108.568H92.5L56.3463 46.9732Z" stroke="#4C4C4C"/>
<path d="M1 1H84.0195L1 72.1261V1Z" fill="black"/>
<path d="M50.3914 43.8849L1 87.8157V104.551H84.0195L50.3914 43.8849Z" fill="black"/>
<path d="M1 1H84.0195L1 72.1261V1Z" stroke="black"/>
<path d="M50.3914 43.8849L1 87.8157V104.551H84.0195L50.3914 43.8849Z" stroke="black"/>
</svg>
